
<svg width="14px" height="16px" viewBox="0 0 14 16" version="1.1" xmlns="http://www.w3.org/2000/svg" xmlns:xlink="http://www.w3.org/1999/xlink">
    <!-- Generator: Sketch 44 (41411) - http://www.bohemiancoding.com/sketch -->
    <desc>Created with Sketch.</desc>
    <defs></defs>
    <g id="首页&amp;登录" stroke="none" stroke-width="1" fill="none" fill-rule="evenodd">
        <g id="关于" transform="translate(-725.000000, -663.000000)">
            <g id="Group-19" transform="translate(724.000000, 663.000000)">
                <rect id="Rectangle-6" x="0" y="0" width="16" height="16"></rect>
                <g id="Group-18" transform="translate(1.000000, 0.000000)">
                    <path d="M3.5,1 C3.22385763,1 3,1.22385763 3,1.5 L3,12.5 C3,12.7761424 3.22385763,13 3.5,13 L12.5,13 C12.7761424,13 13,12.7761424 13,12.5 L13,5.00322628 C13,4.87544535 12.9510776,4.75251339 12.8632786,4.65967325 L9.55027272,1.15644697 C9.45583069,1.05658244 9.32444313,1 9.18699415,1 L3.5,1 Z M3.5,0 L9.18699415,0 C9.59934108,0 9.99350377,0.169747307 10.2768298,0.469340907 L13.5898357,3.97256719 C13.8532328,4.25108762 14,4.6198835 14,5.00322628 L14,12.5 C14,13.3284271 13.3284271,14 12.5,14 L3.5,14 C2.67157288,14 2,13.3284271 2,12.5 L2,1.5 C2,0.671572875 2.67157288,0 3.5,0 Z" id="Rectangle-7-Copy" fill="#3C73B9" fill-rule="nonzero"></path>
                    <g id="Group-11" transform="translate(0.000000, 2.000000)">
                        <polygon id="Path-14" fill="#FFFFFF" points="11.3009033 13.3256836 11.4312744 4.81896973 7.64746094 0.733642578 0.681640625 0.733642578 0.681640625 13.3256836"></polygon>
                        <path d="M1.5,1 C1.22385763,1 1,1.22385763 1,1.5 L1,12.5 C1,12.7761424 1.22385763,13 1.5,13 L10.5,13 C10.7761424,13 11,12.7761424 11,12.5 L11,5.00322628 C11,4.87544535 10.9510776,4.75251339 10.8632786,4.65967325 L7.55027272,1.15644697 C7.45583069,1.05658244 7.32444313,1 7.18699415,1 L1.5,1 Z M1.5,0 L7.18699415,0 C7.59934108,0 7.99350377,0.169747307 8.27682984,0.469340907 L11.5898357,3.97256719 C11.8532328,4.25108762 12,4.6198835 12,5.00322628 L12,12.5 C12,13.3284271 11.3284271,14 10.5,14 L1.5,14 C0.671572875,14 0,13.3284271 0,12.5 L0,1.5 C0,0.671572875 0.671572875,0 1.5,0 Z" id="Rectangle-7" fill="#3C73B9" fill-rule="nonzero"></path>
                        <path d="M6.29345703,0.740281113 L6.29345703,3.95227051 L6.29345703,3.95227051 C6.29345703,4.50455526 6.74117228,4.95227051 7.29345703,4.95227051 L11.3216553,4.95227051 C10.0926949,3.10812991 9.0862659,1.81833499 8.30236816,1.08288574 C7.51847043,0.347436498 6.84883338,0.233234955 6.29345703,0.740281113 Z" id="Path-8" fill="#3C73B9"></path>
                    </g>
                </g>
            </g>
        </g>
    </g>
</svg>