<?xml version="1.0" encoding="UTF-8"?>
<svg width="16px" height="16px" viewBox="0 0 16 16" version="1.1" xmlns="http://www.w3.org/2000/svg" xmlns:xlink="http://www.w3.org/1999/xlink">
    <!-- Generator: Sketch 47.1 (45422) - http://www.bohemiancoding.com/sketch -->
    <title>Group 17 Copy</title>
    <desc>Created with Sketch.</desc>
    <defs></defs>
    <g id="2.1风格调整" stroke="none" stroke-width="1" fill="none" fill-rule="evenodd">
        <g id="Group-17-Copy">
            <g id="Group-50">
                <rect id="Rectangle-6" x="0" y="0" width="16" height="16"></rect>
            </g>
            <path d="M7.97439587,10.9742796 C8.01321841,11.0089453 8.0617518,11.0056349 8.08964455,10.9736587 L12.4005664,6.03162048 L9.61266818,6.03162048 L9.61266818,1.07683015 C9.61266818,1.03439803 9.57827015,1 9.53583803,1 L6.40117317,1 C6.35874105,1 6.32434302,1.03439803 6.32434302,1.07683015 L6.32434302,6.03162048 L3.56826579,6.03162048 L7.97439587,10.9742796 Z M9.53583803,0 C10.1305549,-6.11867969e-13 10.6126682,0.48211328 10.6126682,1.07683015 L10.6126682,5.03162048 L13.4157235,5.03162048 C13.713082,5.03162048 13.9541386,5.27267712 13.9541386,5.57003555 C13.9541386,5.70016789 13.9070078,5.82589679 13.8214653,5.92396264 L8.84323007,11.6310086 C8.45229301,12.0791786 7.77206231,12.1255751 7.32389229,11.734638 C7.28995335,11.7050332 7.2579051,11.6733284 7.22793635,11.6397104 L2.13651551,5.92831354 C1.93864404,5.70634751 1.95817654,5.36600196 2.18014258,5.16813049 C2.27877266,5.08020677 2.40629005,5.03162048 2.53842057,5.03162048 L5.32434302,5.03162048 L5.32434302,1.07683015 C5.32434302,0.48211328 5.8064563,1.67851236e-12 6.40117317,1.46570951e-12 L9.53583803,0 Z" id="Combined-Shape-Copy" fill="#3C73B9" fill-rule="nonzero"></path>
            <rect id="Rectangle-49" fill="#3C73B9" x="0" y="14" width="16" height="2" rx="0.800000012"></rect>
        </g>
    </g>
</svg>