
<svg width="18px" height="18px" viewBox="0 0 18 18" version="1.1" xmlns="http://www.w3.org/2000/svg" xmlns:xlink="http://www.w3.org/1999/xlink">
  <!-- Generator: Sketch 44.1 (41455) - http://www.bohemiancoding.com/sketch -->
  <desc>Created with Sketch.</desc>
  <defs>
    <path d="M8.66861046,1.50989146 C8.66697899,1.5918621 8.6451246,1.67469928 8.601,1.75088564 C8.594,1.76288564 8.585,1.77688564 8.577,1.78788564 C7.915,2.96888564 7.253,4.14788564 6.592,5.32788564 C6.563,5.37988564 6.529,5.42988564 6.492,5.47588564 C6.14,5.90088564 5.51,5.96288564 5.084,5.61088564 L3.662,4.43988564 C2.629,5.65888564 2,7.23188564 2,8.95588564 C2,12.4118856 4.504,15.2798856 7.797,15.8498856 C7.827,15.8548856 7.854,15.8638856 7.879,15.8738856 C8.067,15.9458856 8.199,16.1278856 8.199,16.3408856 C8.199,16.6178856 7.976,16.8408856 7.699,16.8408856 C7.67,16.8408856 7.639,16.8378856 7.611,16.8338856 C7.609,16.8328856 7.607,16.8328856 7.604,16.8318856 C3.851,16.1708856 1,12.8988856 1,8.95588564 C1,4.84888564 4.094,1.46488564 8.078,1.00788564 C8.1045967,1.00345285 8.13197937,1.00059203 8.15805758,1 L8.1787275,1 C8.26106347,1.0017576 8.34232806,1.02379927 8.419,1.06788564 C8.57599365,1.15787781 8.66524373,1.32079139 8.66861046,1.49001931 L8.66861046,1.50989145 L8.66861046,1.50989146 Z" id="path-1"></path>
  </defs>
  <g id="页面" stroke="none" stroke-width="1" fill="none" fill-rule="evenodd">
    <g id="云主机_列表" transform="translate(-738.000000, -98.000000)">
      <g id="Group-49" transform="translate(738.000000, 98.000000)">
        <g id="Group-47">
          <g id="Group-50">
            <rect id="Rectangle-6" x="0" y="0" width="18" height="18"></rect>
          </g>
          <path d="M9.9219,16.8893 C13.9059,16.4323 16.9999,13.0483 16.9999,8.9413 C16.9999,4.9983 14.1489,1.7263 10.3959,1.0653 C10.3599,1.0583 10.3309,1.0563 10.3009,1.0563 C10.0249,1.0563 9.8009,1.2803 9.8009,1.5563 C9.8009,1.7693 9.9339,1.9513 10.1209,2.0233 C10.1459,2.0333 10.1729,2.0413 10.2039,2.0473 C13.4969,2.6183 15.9999,5.4853 15.9999,8.9413 C15.9999,10.6643 15.3709,12.2393 14.3389,13.4573 L12.9169,12.2863 C12.4899,11.9353 11.8599,11.9953 11.5089,12.4223 C11.4709,12.4683 11.4379,12.5173 11.4079,12.5693 C10.7469,13.7483 10.0849,14.9293 9.4229,16.1083 C9.4149,16.1213 9.4059,16.1343 9.3989,16.1473 C9.2599,16.3863 9.3419,16.6923 9.5819,16.8303 C9.6889,16.8923 9.8089,16.9103 9.9219,16.8893 Z" id="Stroke-1" fill="#3C73B9"></path>
          <mask id="mask-2" fill="white">
            <use xlink:href="#path-1"></use>
          </mask>
          <use id="Clip-5" fill="#3C73B9" xlink:href="#path-1"></use>
          <path d="M4.35684204,3.71496582 L5.72070312,4.84326172 L7.20610046,2.18597412 C6.69153341,2.31996663 6.18980408,2.51752218 5.70091248,2.77864075 C5.21202087,3.03975932 4.7639974,3.35186768 4.35684204,3.71496582 Z" id="Path-11" fill="#99C8ED" mask="url(#mask-2)"></path>
        </g>
        <path d="M12.2759231,13.0540831 L10.7909231,15.7110831 C11.3059231,15.5770831 11.8069231,15.3800831 12.2959231,15.1190831 C12.7849231,14.8570831 13.2329231,14.5450831 13.6399231,14.1820831 L12.2759231,13.0540831 Z" id="Page-1" fill="#99C8ED"></path>
      </g>
    </g>
  </g>
</svg>
