<?xml version="1.0" encoding="UTF-8"?>
<svg width="140px" height="120px" viewBox="0 0 140 120" version="1.1" xmlns="http://www.w3.org/2000/svg" xmlns:xlink="http://www.w3.org/1999/xlink">
    <!-- Generator: Sketch 48.2 (47327) - http://www.bohemiancoding.com/sketch -->
    <title>sys_about_enterprise</title>
    <desc>Created with Sketch.</desc>
    <defs>
        <linearGradient x1="52.4980187%" y1="165.856934%" x2="52.4980187%" y2="0%" id="linearGradient-1">
            <stop stop-color="#B5DAFF" offset="0%"></stop>
            <stop stop-color="#D9ECFF" stop-opacity="0" offset="100%"></stop>
        </linearGradient>
        <filter x="-25.0%" y="-150.0%" width="150.0%" height="400.0%" filterUnits="objectBoundingBox" id="filter-2">
            <feGaussianBlur stdDeviation="5" in="SourceGraphic"></feGaussianBlur>
        </filter>
        <linearGradient x1="50%" y1="0%" x2="50%" y2="100%" id="linearGradient-3">
            <stop stop-color="#007FDF" stop-opacity="0" offset="0%"></stop>
            <stop stop-color="#007FDF" offset="100%"></stop>
        </linearGradient>
    </defs>
    <g id="关于" stroke="none" stroke-width="1" fill="none" fill-rule="evenodd">
        <g id="sys_about_enterprise" transform="translate(1.000000, 4.000000)">
            <g id="Group-39-Copy" transform="translate(0.000000, 16.000000)">
                <path d="M69,67 C107.107648,67 138,58.2842712 138,50 C138,41.7157288 107.107648,35 69,35 C30.8923523,35 0,41.7157288 0,50 C0,58.2842712 30.8923523,67 69,67 Z" id="Oval-Copy-2" fill="url(#linearGradient-1)"></path>
                <path d="M69,83 C85.5685425,83 99,80.2763348 99,77.6875 C99,75.0986652 85.5685425,73 69,73 C52.4314575,73 39,75.0986652 39,77.6875 C39,80.2763348 52.4314575,83 69,83 Z" id="Oval-Copy-2" fill="#DCEDFF" filter="url(#filter-2)"></path>
                <g id="Group-22" transform="translate(0.000000, 22.000000)">
                    <path d="M69,32 C107.107648,32 138,23.2842712 138,15 C138,6.71572875 107.107648,0 69,0 C30.8923523,0 0,6.71572875 0,15 C0,23.2842712 30.8923523,32 69,32 Z" id="Oval-Copy-2" stroke="url(#linearGradient-3)" stroke-dasharray="1,5"></path>
                    <circle id="Oval-3" fill="#007FDF" cx="41" cy="30" r="2"></circle>
                </g>
                <g id="Group-38" transform="translate(102.000000, 0.000000)" fill="#89D7FF" opacity="0.400000006">
                    <g id="Group-3">
                        <circle id="Oval" cx="5.5" cy="5.5" r="5.5"></circle>
                    </g>
                </g>
            </g>
            <g id="Group-40" transform="translate(38.000000, 0.000000)">
                <path d="M1.5,50.7 L1.5,1.7 L54.5,1.7 L54.5,50.7 L1.5,50.7 Z M1.5,1.7 L1.5,50.7 L54.5,50.7 L54.5,1.7 L1.5,1.7 Z" id="Rectangle-28" stroke="#007FDF" stroke-width="3" fill-rule="nonzero"></path>
                <path d="M9.5,20 L32.5,20 C33.3284271,20 34,20.6715729 34,21.5 L34,21.5 C34,22.3284271 33.3284271,23 32.5,23 L9.5,23 C8.67157288,23 8,22.3284271 8,21.5 L8,21.5 C8,20.6715729 8.67157288,20 9.5,20 Z" id="Rectangle-31" fill="#007FDF"></path>
                <rect id="Rectangle-31-Copy-2" fill="#007FDF" x="8" y="28" width="22" height="3" rx="1.5"></rect>
                <rect id="Rectangle-31-Copy-3" fill="#007FDF" x="8" y="36" width="17" height="3" rx="1.5"></rect>
                <rect id="Rectangle-31-Copy" fill="#007FDF" x="8" y="12" width="17" height="3" rx="1.5"></rect>
                <path d="M42.8,38.2 L57.2,38.2 L57.2,58.7577795 C57.2,59.4205212 56.6627417,59.9577795 56,59.9577795 C55.76309,59.9577795 55.5314808,59.8876539 55.3343598,59.7562398 L50.6656402,56.6437602 C50.2625609,56.3750406 49.7374391,56.3750406 49.3343598,56.6437602 L44.6656402,59.7562398 C44.1142058,60.1238628 43.3691626,59.9748542 43.0015396,59.4234197 C42.8701256,59.2262987 42.8,58.9946895 42.8,58.7577795 L42.8,38.2 Z" id="Rectangle-37" fill="#007FDF" fill-rule="nonzero"></path>
                <path d="M41.0929662,35.2319871 L38.4471896,30.3082846 C38.1334848,29.7244903 38.3524355,28.9969234 38.9362299,28.6832186 C39.0999465,28.5952446 39.28186,28.546501 39.4676298,28.5408304 L45.0545695,28.3702889 C45.4570401,28.3580035 45.8265219,28.144683 46.0383967,27.802276 L48.9795598,23.049115 C49.3282881,22.4855415 50.0678549,22.311375 50.6314284,22.6601033 C50.7894745,22.7578991 50.9226444,22.891069 51.0204402,23.049115 L53.9616033,27.802276 C54.1734781,28.144683 54.5429599,28.3580035 54.9454305,28.3702889 L60.5323702,28.5408304 C61.1948034,28.5610512 61.7154194,29.1144516 61.6951986,29.7768847 C61.6895279,29.9626545 61.6407844,30.144568 61.5528104,30.3082846 L58.9070338,35.2319871 C58.716438,35.5866796 58.716438,36.0133204 58.9070338,36.3680129 L61.5528104,41.2917154 C61.8665152,41.8755097 61.6475645,42.6030766 61.0637701,42.9167814 C60.9000535,43.0047554 60.71814,43.053499 60.5323702,43.0591696 L54.9454305,43.2297111 C54.5429599,43.2419965 54.1734781,43.455317 53.9616033,43.797724 L51.0204402,48.550885 C50.6717119,49.1144585 49.9321451,49.288625 49.3685716,48.9398967 C49.2105255,48.8421009 49.0773556,48.708931 48.9795598,48.550885 L46.0383967,43.797724 C45.8265219,43.455317 45.4570401,43.2419965 45.0545695,43.2297111 L39.4676298,43.0591696 C38.8051966,43.0389488 38.2845806,42.4855484 38.3048014,41.8231153 C38.3104721,41.6373455 38.3592156,41.455432 38.4471896,41.2917154 L41.0929662,36.3680129 C41.283562,36.0133204 41.283562,35.5866796 41.0929662,35.2319871 Z" id="Star" fill="#007FDF" fill-rule="nonzero"></path>
                <path d="M45.1277955,40.8308285 C46.3352072,40.8676848 47.4436526,41.507646 48.079277,42.5348671 L50,45.6389131 L51.920723,42.5348671 C52.5563474,41.507646 53.6647928,40.8676848 54.8722045,40.8308285 L58.5207487,40.7194565 L56.7929275,37.5040387 C56.2211401,36.4399613 56.2211401,35.1600387 56.7929275,34.0959613 L58.5207487,30.8805435 L54.8722045,30.7691715 C53.6647928,30.7323152 52.5563474,30.092354 51.920723,29.0651329 L50,25.9610869 L48.079277,29.0651329 C47.4436526,30.092354 46.3352072,30.7323152 45.1277955,30.7691715 L41.4792513,30.8805435 L43.2070725,34.0959613 C43.7788599,35.1600387 43.7788599,36.4399613 43.2070725,37.5040387 L41.4792513,40.7194565 L45.1277955,40.8308285 Z" id="Path" fill="#E0F3FF"></path>
            </g>
        </g>
    </g>
</svg>